<svg width="88" height="88" viewBox="0 0 88 88" fill="none" xmlns="http://www.w3.org/2000/svg">
<g clip-path="url(#clip0_187_71)">
<path d="M27.5002 20.5333L36.6669 25.6666L31.5336 16.5L36.6669 7.33331L27.5002 12.4666L18.3335 7.33331L23.4669 16.5L18.3335 25.6666L27.5002 20.5333ZM71.5002 56.4666L62.3336 51.3333L67.4669 60.5L62.3336 69.6666L71.5002 64.5333L80.6669 69.6666L75.5336 60.5L80.6669 51.3333L71.5002 56.4666ZM80.6669 7.33331L71.5002 12.4666L62.3336 7.33331L67.4669 16.5L62.3336 25.6666L71.5002 20.5333L80.6669 25.6666L75.5336 16.5L80.6669 7.33331ZM52.6902 26.73C51.2602 25.3 48.9502 25.3 47.5202 26.73L4.73021 69.52C3.30021 70.95 3.30021 73.26 4.73021 74.69L13.3102 83.27C14.7402 84.7 17.0502 84.7 18.4802 83.27L61.2336 40.5166C62.6636 39.0866 62.6636 36.7766 61.2336 35.3466L52.6902 26.73ZM48.9135 46.86L41.1402 39.0866L50.0869 30.14L57.8602 37.9133L48.9135 46.86Z" fill="#5795A7"/>
</g>
<defs>
<clipPath id="clip0_187_71">
<rect width="88" height="88" fill="white"/>
</clipPath>
</defs>
</svg>
